<svg width="651" height="808" viewBox="0 0 651 808" fill="none" xmlns="http://www.w3.org/2000/svg">
<path d="M488.32 621.059C544.459 621.059 591.962 653.465 591.962 713.957C591.962 776.609 544.459 807.936 488.32 807.936C432.181 807.936 384.68 774.449 384.68 713.957C384.68 651.305 433.26 621.059 488.32 621.059Z" fill="#D62828"/>
<path d="M409.17 0C545.199 0 651 108.021 651 262.492C651 439.647 530.085 547.668 369.223 547.668C317.402 547.668 286.094 529.305 267.741 515.262V639.487C267.741 736.706 306.606 763.711 355.188 776.674V808H0V776.674C47.5024 763.711 86.368 736.706 86.368 639.487V245.209C86.368 149.069 51.8208 122.064 0 108.021V76.6952C85.2884 76.6952 171.656 69.1337 241.83 0L267.741 15.123V55.0909C303.368 21.6043 346.552 0 409.17 0ZM349.79 506.62C451.274 506.62 462.07 344.588 462.07 275.455C462.07 199.84 453.433 54.0107 349.79 54.0107C310.925 54.0107 277.457 77.7754 267.741 109.102V414.802C267.741 480.695 305.527 506.62 349.79 506.62Z" fill="#052536"/>
</svg>
