<svg width="201" height="235" viewBox="0 0 201 235" fill="none" xmlns="http://www.w3.org/2000/svg">
<path d="M201 172.417C195.518 184.65 192.876 190.118 185.824 200.914C175.952 216 162.027 234.838 144.825 234.958C129.51 235.098 125.557 224.92 104.76 225.1C83.9826 225.2 79.6523 235.158 64.3175 234.998C47.0956 234.838 33.9259 217.876 24.0537 202.81C-3.55696 160.563 -6.47692 111.033 10.586 84.6919C22.6632 66.0134 41.7523 55.0378 59.6892 55.0378C77.9639 55.0378 89.4451 65.1154 104.542 65.1154C119.201 65.1154 128.12 55.0178 149.255 55.0178C165.225 55.0178 182.11 63.7584 194.187 78.8449C154.698 100.597 161.114 157.251 201 172.417ZM133.205 38.1553C140.892 28.2373 146.732 14.2484 144.607 0C132.073 0.858096 117.413 8.90024 108.852 19.3171C101.085 28.816 94.6495 42.9047 97.1523 56.5344C110.838 56.9735 125.001 48.7717 133.205 38.1553Z" fill="white"/>
</svg>
