<svg width="6" height="9" viewBox="0 0 6 9" fill="none" xmlns="http://www.w3.org/2000/svg">
<g clip-path="url(#clip0_194_2128)">
<path d="M0.000128171 1.07248C0.000128146 1.64853 0.467068 2.15136 0.998108 2.15136C1.56922 2.15136 1.99609 1.69159 1.99609 1.07248C1.99609 0.486262 1.55073 -1.94676e-08 0.998108 -4.36233e-08C0.467068 -6.68358e-08 0.000128197 0.486262 0.000128171 1.07248Z" fill="#3A577D"/>
<path d="M0.000128171 4.37665C0.000128146 4.94735 0.467068 5.44914 0.998108 5.44914C1.56922 5.44914 1.99609 4.9904 1.99609 4.37665C1.99609 3.78712 1.55073 3.30188 0.998108 3.30188C0.467068 3.30188 0.000128197 3.78712 0.000128171 4.37665Z" fill="#3A577D"/>
<path d="M0.000128171 7.67745C0.000128146 8.24814 0.467068 8.74995 0.998108 8.74995C1.56922 8.74995 1.99609 8.2912 1.99609 7.67745C1.99609 7.08485 1.55073 6.59961 0.998108 6.59961C0.467068 6.59961 0.000128197 7.08485 0.000128171 7.67745Z" fill="#3A577D"/>
</g>
<g clip-path="url(#clip1_194_2128)">
<path d="M4.00013 1.07248C4.00013 1.64853 4.46707 2.15136 4.99811 2.15136C5.56922 2.15136 5.99609 1.69159 5.99609 1.07248C5.99609 0.486262 5.55073 -1.94676e-08 4.99811 -4.36233e-08C4.46707 -6.68358e-08 4.00013 0.486262 4.00013 1.07248Z" fill="#3A577D"/>
<path d="M4.00013 4.37665C4.00013 4.94735 4.46707 5.44914 4.99811 5.44914C5.56922 5.44914 5.99609 4.9904 5.99609 4.37665C5.99609 3.78712 5.55073 3.30188 4.99811 3.30188C4.46707 3.30188 4.00013 3.78712 4.00013 4.37665Z" fill="#3A577D"/>
<path d="M4.00013 7.67745C4.00013 8.24814 4.46707 8.74995 4.99811 8.74995C5.56922 8.74995 5.99609 8.2912 5.99609 7.67745C5.99609 7.08485 5.55073 6.59961 4.99811 6.59961C4.46707 6.59961 4.00013 7.08485 4.00013 7.67745Z" fill="#3A577D"/>
</g>
<defs>
<clipPath id="clip0_194_2128">
<rect width="8.75" height="2" fill="white" transform="translate(2) rotate(90)"/>
</clipPath>
<clipPath id="clip1_194_2128">
<rect width="8.75" height="2" fill="white" transform="translate(6) rotate(90)"/>
</clipPath>
</defs>
</svg>
