<svg width="23" height="23" viewBox="0 0 23 23" fill="none" xmlns="http://www.w3.org/2000/svg">
<path d="M23 11.5C23 5.14872 17.8513 -5.72205e-06 11.5 -5.72205e-06C5.14872 -5.72205e-06 0 5.14872 0 11.5C0 17.24 4.20538 21.9976 9.70312 22.8603V14.8242H6.7832V11.5H9.70312V8.9664C9.70312 6.08421 11.42 4.49218 14.0468 4.49218C15.305 4.49218 16.6211 4.71679 16.6211 4.71679V7.54687H15.171C13.7424 7.54687 13.2969 8.43333 13.2969 9.34278V11.5H16.4863L15.9765 14.8242H13.2969V22.8603C18.7946 21.9976 23 17.24 23 11.5Z" fill="white"/>
</svg>
