<svg width="45" height="45" viewBox="0 0 45 45" fill="none" xmlns="http://www.w3.org/2000/svg">
<path d="M22.5 3.53384C23.4707 3.53384 24.2508 2.73307 24.2508 1.75822C24.2508 0.800769 23.4707 0 22.5 0C21.5466 0 20.7492 0.800769 20.7492 1.75822C20.7492 2.73307 21.5466 3.53384 22.5 3.53384ZM28.8791 4.57832C29.8498 4.57832 30.6298 3.77755 30.6298 2.82011C30.6298 1.84525 29.8498 1.04448 28.8791 1.04448C27.9257 1.04448 27.1283 1.84525 27.1283 2.82011C27.1283 3.77755 27.9257 4.57832 28.8791 4.57832ZM34.6687 7.50287C35.6221 7.50287 36.4195 6.71952 36.4195 5.74468C36.4195 4.78723 35.6221 3.98646 34.6687 3.98646C33.7153 3.98646 32.9179 4.78723 32.9179 5.74468C32.9179 6.71952 33.7153 7.50287 34.6687 7.50287ZM39.245 12.0986C40.1983 12.0986 40.9959 11.2978 40.9959 10.3404C40.9959 9.36555 40.1983 8.56477 39.245 8.56477C38.2743 8.56477 37.4769 9.36555 37.4769 10.3404C37.4769 11.2978 38.2743 12.0986 39.245 12.0986ZM42.1572 17.8433C43.1106 17.8433 43.9078 17.0425 43.9078 16.0676C43.9078 15.1102 43.1106 14.3094 42.1572 14.3094C41.2038 14.3094 40.4066 15.1102 40.4066 16.0676C40.4066 17.0425 41.2038 17.8433 42.1572 17.8433ZM43.2494 24.2669C44.2028 24.2669 45 23.4661 45 22.4912C45 21.5338 44.2028 20.733 43.2494 20.733C42.2787 20.733 41.4984 21.5338 41.4984 22.4912C41.4984 23.4661 42.2787 24.2669 43.2494 24.2669ZM42.1572 30.6904C43.1106 30.6904 43.9078 29.8897 43.9078 28.9148C43.9078 27.9574 43.1106 27.1566 42.1572 27.1566C41.2038 27.1566 40.4066 27.9574 40.4066 28.9148C40.4066 29.8897 41.2038 30.6904 42.1572 30.6904ZM39.245 36.4177C40.1983 36.4177 40.9959 35.6169 40.9959 34.6595C40.9959 33.6846 40.1983 32.9012 39.245 32.9012C38.2743 32.9012 37.4769 33.6846 37.4769 34.6595C37.4769 35.6169 38.2743 36.4177 39.245 36.4177ZM34.6687 41.0133C35.6221 41.0133 36.4195 40.2128 36.4195 39.2552C36.4195 38.2803 35.6221 37.4796 34.6687 37.4796C33.7153 37.4796 32.9179 38.2803 32.9179 39.2552C32.9179 40.2128 33.7153 41.0133 34.6687 41.0133ZM28.8791 43.938C29.8498 43.938 30.6298 43.137 30.6298 42.1796C30.6298 41.2051 29.8498 40.4215 28.8791 40.4215C27.9257 40.4215 27.1283 41.2051 27.1283 42.1796C27.1283 43.137 27.9257 43.938 28.8791 43.938ZM22.5 44.9826C23.4707 44.9826 24.2508 44.199 24.2508 43.2242C24.2508 42.2667 23.4707 41.4661 22.5 41.4661C21.5466 41.4661 20.7492 42.2667 20.7492 43.2242C20.7492 44.199 21.5466 44.9826 22.5 44.9826ZM16.1209 43.938C17.0917 43.938 17.8717 43.137 17.8717 42.1796C17.8717 41.2051 17.0917 40.4215 16.1209 40.4215C15.1676 40.4215 14.3702 41.2051 14.3702 42.1796C14.3702 43.137 15.1676 43.938 16.1209 43.938ZM10.3313 41.0133C11.302 41.0133 12.0994 40.2128 12.0994 39.2552C12.0994 38.2803 11.302 37.4796 10.3313 37.4796C9.37789 37.4796 8.5805 38.2803 8.5805 39.2552C8.5805 40.2128 9.37789 41.0133 10.3313 41.0133ZM5.77235 36.4177C6.72574 36.4177 7.52313 35.6169 7.52313 34.6595C7.52313 33.6846 6.72574 32.9012 5.77235 32.9012C4.80164 32.9012 4.00425 33.6846 4.00425 34.6595C4.00425 35.6169 4.80164 36.4177 5.77235 36.4177ZM2.84284 30.6904C3.81356 30.6904 4.61096 29.8897 4.61096 28.9148C4.61096 27.9574 3.81356 27.1566 2.84284 27.1566C1.88945 27.1566 1.09206 27.9574 1.09206 28.9148C1.09206 29.8897 1.88945 30.6904 2.84284 30.6904ZM1.75077 24.2669C2.72149 24.2669 3.51888 23.4661 3.51888 22.4912C3.51888 21.5338 2.72149 20.733 1.75077 20.733C0.797379 20.733 0 21.5338 0 22.4912C0 23.4661 0.797379 24.2669 1.75077 24.2669ZM2.84284 17.8433C3.81356 17.8433 4.61096 17.0425 4.61096 16.0676C4.61096 15.1102 3.81356 14.3094 2.84284 14.3094C1.88945 14.3094 1.09206 15.1102 1.09206 16.0676C1.09206 17.0425 1.88945 17.8433 2.84284 17.8433ZM5.77235 12.0986C6.72574 12.0986 7.52313 11.2978 7.52313 10.3404C7.52313 9.36555 6.72574 8.56477 5.77235 8.56477C4.80164 8.56477 4.00425 9.36555 4.00425 10.3404C4.00425 11.2978 4.80164 12.0986 5.77235 12.0986ZM10.3313 7.50287C11.302 7.50287 12.0994 6.71952 12.0994 5.74468C12.0994 4.78723 11.302 3.98646 10.3313 3.98646C9.37789 3.98646 8.5805 4.78723 8.5805 5.74468C8.5805 6.71952 9.37789 7.50287 10.3313 7.50287ZM16.1209 4.57832C17.0917 4.57832 17.8717 3.77755 17.8717 2.82011C17.8717 1.84525 17.0917 1.04448 16.1209 1.04448C15.1676 1.04448 14.3702 1.84525 14.3702 2.82011C14.3702 3.77755 15.1676 4.57832 16.1209 4.57832Z" fill="#FAFAFA"/>
</svg>
