<svg width="206" height="207" viewBox="0 0 206 207" fill="none" xmlns="http://www.w3.org/2000/svg">
<path d="M203.997 83.2295H195.7V82.8H103V124.2H161.21C152.718 148.3 129.898 165.6 103 165.6C68.871 165.6 41.2 137.795 41.2 103.5C41.2 69.2053 68.871 41.4 103 41.4C118.754 41.4 133.086 47.3719 143.999 57.1268L173.133 27.8519C154.737 10.6243 130.13 0 103 0C46.1183 0 0 46.3421 0 103.5C0 160.658 46.1183 207 103 207C159.882 207 206 160.658 206 103.5C206 96.5603 205.289 89.7863 203.997 83.2295Z" fill="white"/>
<path d="M11 55.1438L44.9966 80C54.1955 57.2946 76.4736 41.2637 102.544 41.2637C118.371 41.2637 132.769 47.216 143.732 56.9387L173 27.7602C154.519 10.5893 129.799 0 102.544 0C62.7994 0 28.332 22.3701 11 55.1438Z" fill="white"/>
<path d="M103.408 207C130.219 207 154.581 196.71 173 179.975L140.874 152.711C130.453 160.628 117.498 165.359 103.408 165.359C76.4093 165.359 53.4852 148.094 44.849 124L11 150.155C28.1788 183.869 63.0659 207 103.408 207Z" fill="white"/>
<path d="M203.997 83.4276L203.914 83H195.7H103V124.215H161.21C157.132 135.739 149.721 145.677 140.162 152.916L140.178 152.905L172.056 179.891C169.801 181.941 206 155.126 206 103.607C206 96.6987 205.289 89.955 203.997 83.4276Z" fill="white"/>
</svg>
